Coordinates
version=1
nRows=13
nColumns=40
inDegrees=yes

Units are S.I. units (second, meters, Newtons, ...)
Angles are in degrees.

endheader
time	pelvis_tilt	pelvis_list	pelvis_rotation	pelvis_tx	pelvis_ty	pelvis_tz	hip_flexion_r	hip_adduction_r	hip_rotation_r	knee_angle_r	knee_angle_r_beta	ankle_angle_r	subtalar_angle_r	mtp_angle_r	hip_flexion_l	hip_adduction_l	hip_rotation_l	knee_angle_l	knee_angle_l_beta	ankle_angle_l	subtalar_angle_l	mtp_angle_l	lumbar_extension	lumbar_bending	lumbar_rotation	arm_flex_r	arm_add_r	arm_rot_r	elbow_flex_r	pro_sup_r	wrist_flex_r	wrist_dev_r	arm_flex_l	arm_add_l	arm_rot_l	elbow_flex_l	pro_sup_l	wrist_flex_l	wrist_dev_l
      9.95250000	     -5.81403835	     -6.61394564	      6.43490381	      0.96736961	      0.92873216	      0.49839100	     12.61449273	      4.00181181	    -19.31598855	     12.82738311	     12.82738311	      8.66154539	      2.80003737	     -6.08917107	     42.70484685	    -10.97878405	      4.77452589	     63.30212166	     63.30212166	      8.25946929	    -17.87442601	     10.91267103	    -13.57081881	      6.93818564	      4.61174580	     22.55316945	    -17.12279385	     -0.81754675	     41.51344614	     45.78144294	      0.00000000	      0.00000000	     -4.36423301	     -8.52223280	     -3.78803046	     49.13858934	     47.29147792	      0.00000000	      0.00000000
      9.96385714	     -5.83363609	     -6.58526403	      6.51465888	      0.96615416	      0.92841987	      0.49833381	     12.11557744	      4.06985502	    -19.15224305	     12.73879139	     12.73879139	      9.08651936	      2.63614256	     -6.23091324	     43.37615306	    -10.59013519	      5.01168599	     60.85087597	     60.85087597	      8.08971523	    -17.76692866	     11.24904924	    -13.67111391	      6.78063827	      4.94006323	     24.67042327	    -17.56463285	     -0.84021832	     42.75876710	     45.74845679	      0.00000000	      0.00000000	     -5.63326815	     -8.54660513	     -3.86230657	     47.65284824	     47.26676784	      0.00000000	      0.00000000
      9.97521429	     -5.81087038	     -6.58486147	      6.69572606	      0.96507975	      0.92815938	      0.49809465	     11.52059447	      4.19002011	    -18.93563851	     12.56065503	     12.56065503	      9.45421063	      2.24755494	     -6.31804338	     43.81837740	    -10.15762190	      5.33835558	     58.03912378	     58.03912378	      7.83132607	    -17.64301693	     11.53590057	    -13.75755717	      6.73521664	      4.25473629	     27.03197178	    -17.12368922	     -0.45072571	     45.10380035	     45.65369917	      0.00000000	      0.00000000	     -6.85822727	     -8.67114290	     -4.05865833	     44.56623410	     47.23580861	      0.00000000	      0.00000000
      9.98657143	     -5.91132938	     -6.76058232	      6.80895947	      0.96401627	      0.92756900	      0.49785201	     11.08985853	      4.48108558	    -18.71072533	     12.39173320	     12.39173320	      9.74619196	      1.83147557	     -6.52739830	     44.28010823	     -9.94174993	      5.70177893	     54.99316969	     54.99316969	      7.37119238	    -17.34837501	     10.91058283	    -13.69098703	      6.87950760	      4.86603349	     28.05582471	    -18.50004964	      1.63325052	     49.12112476	     45.41428805	      0.00000000	      0.00000000	     -6.26073368	     -8.01370217	     -5.71928136	     38.64418349	     47.32483964	      0.00000000	      0.00000000
      9.99792857	     -5.93026586	     -6.76483572	      6.89836639	      0.96310205	      0.92713788	      0.49748218	     10.54266682	      4.56991795	    -18.58956099	     12.25969026	     12.25969026	     10.18607020	      1.73937415	     -6.63594097	     44.39743891	     -9.62272611	      5.86982280	     51.69639162	     51.69639162	      7.32863287	    -16.84219249	     11.14691623	    -13.73369628	      6.81138378	      4.66842518	     30.16251338	    -18.27563106	      1.66494505	     51.05102817	     45.35576410	      0.00000000	      0.00000000	     -7.65764577	     -8.20083334	     -5.85324315	     37.26613797	     47.30460606	      0.00000000	      0.00000000
     10.00928571	     -5.98000609	     -6.88838735	      6.98586939	      0.96239850	      0.92652714	      0.49713830	     10.00875224	      4.79199802	    -18.49895890	     12.08963618	     12.08963618	     10.61289893	      1.67190314	     -6.71417039	     44.39388299	     -9.42200903	      6.13816227	     48.21034682	     48.21034682	      7.37492414	    -16.17385945	     11.15128701	    -13.70043159	      6.80909395	      4.29385098	     32.19536431	    -18.03407533	      1.94116493	     53.58197496	     45.26596700	      0.00000000	      0.00000000	     -8.91195506	     -8.26812473	     -6.02141163	     35.38388005	     47.28701067	      0.00000000	      0.00000000
     10.02064286	     -6.14303181	     -7.18904373	      7.02893926	      0.96176179	      0.92558984	      0.49676132	      9.69821564	      5.14417856	    -18.50154612	     12.08647417	     12.08647417	     11.02664062	      1.65052088	     -6.88831321	     44.44513625	     -9.43314799	      6.40188568	     44.66901777	     44.66901777	      7.57433558	    -15.23411444	     11.46660478	    -13.43724740	      6.99733170	      4.78667530	     34.03218857	    -18.41267459	      1.82974375	     54.71632000	     45.24068006	      0.00000000	      0.00000000	    -10.03829448	     -8.35588108	     -6.08806828	     34.61316912	     47.27441574	      0.00000000	      0.00000000
     10.03200000	     -6.06858691	     -7.18868293	      7.08000959	      0.96162135	      0.92516455	      0.49609367	      8.86849526	      5.26060883	    -18.38484620	     11.72651403	     11.72651403	     11.56340207	      1.86111179	     -6.69064177	     43.80344093	     -9.27703033	      6.30824155	     40.74929267	     40.74929267	      7.21961317	    -14.35244458	     10.14098274	    -13.62211266	      6.95659157	      4.81851785	     34.56032044	    -19.30408719	      3.82164928	     61.70854838	     44.93993889	      0.00000000	      0.00000000	     -9.86474894	     -8.12364612	     -6.94668425	     30.01702580	     47.33264529	      0.00000000	      0.00000000
     10.04335714	     -6.07113133	     -7.26010652	      7.08762051	      0.96168447	      0.92449071	      0.49543938	      8.20728657	      5.41512674	    -18.25904428	     11.53852868	     11.53852868	     12.03186823	      1.94481577	     -6.79420833	     43.18377323	     -9.21763906	      6.15903493	     36.99093487	     36.99093487	      7.54181368	    -13.17434157	     10.53148039	    -13.51989481	      6.90267048	      4.57166363	     36.42656412	    -18.74745283	      3.68539382	     63.67850678	     44.89092150	      0.00000000	      0.00000000	    -11.16162302	     -8.24157654	     -7.01152682	     29.05005962	     47.31205436	      0.00000000	      0.00000000
     10.05471429	     -6.04709566	     -7.41626962	      7.10183907	      0.96205970	      0.92368742	      0.49468241	      7.46995905	      5.66531749	    -18.19476885	     11.28308221	     11.28308221	     12.50425694	      2.12609656	     -6.85713055	     42.46775896	     -9.25889276	      5.93915477	     33.40351659	     33.40351659	      7.90216764	    -11.92329665	     10.98405771	    -13.44141527	      6.97466423	      4.17209431	     38.14751175	    -18.09834538	      3.78387577	     66.35853077	     44.81003127	      0.00000000	      0.00000000	    -12.43762586	     -8.26133915	     -7.05869774	     27.95393422	     47.28852409	      0.00000000	      0.00000000
     10.06607143	     -6.03161608	     -7.63443212	      7.10443934	      0.96276751	      0.92271847	      0.49381130	      6.72372531	      5.96451251	    -18.21666749	     11.03417856	     11.03417856	     13.07155269	      2.51226149	     -6.68154585	     41.74325150	     -9.38745116	      5.57531968	     30.16003273	     30.16003273	      8.37441149	    -10.64455107	     11.72815869	    -13.34337697	      7.11045240	      4.52768464	     38.78174904	    -18.67414189	      4.31349452	     71.37975524	     44.65776286	      0.00000000	      0.00000000	    -13.03173568	     -8.23878407	     -7.29536493	     26.52796280	     47.27945101	      0.00000000	      0.00000000
     10.07742857	     -5.99124612	     -7.77674637	      7.06365393	      0.96381346	      0.92169205	      0.49284509	      5.92836916	      6.19232573	    -18.06955820	     10.80085207	     10.80085207	     13.58216776	      2.67666778	     -6.70214234	     40.88928895	     -9.47138761	      5.01970529	     27.21524826	     27.21524826	      8.69361678	     -9.57838451	     12.41619977	    -13.17011297	      7.15683695	      4.18835098	     40.31042404	    -17.87963760	      4.30923578	     73.96840224	     44.59257961	      0.00000000	      0.00000000	    -14.21391454	     -8.22854235	     -7.27443704	     25.68607849	     47.24150524	      0.00000000	      0.00000000
     10.08878571	     -5.95481415	     -7.89482092	      7.00005320	      0.96514062	      0.92057248	      0.49175263	      5.12275668	      6.37783787	    -17.92537068	     10.59211388	     10.59211388	     14.12763814	      2.88905649	     -6.59986316	     40.02987061	     -9.55046697	      4.27243679	     24.73163863	     24.73163863	      8.95490350	     -8.60357533	     13.16174932	    -12.95936340	      7.16902626	      4.12201984	     41.40994283	    -17.47893046	      4.50042777	     77.15752595	     44.50847523	      0.00000000	      0.00000000	    -15.29636088	     -8.24139642	     -7.24358300	     25.13702132	     47.19498958	      0.00000000	      0.00000000
